<svg xmlns="http://www.w3.org/2000/svg" viewBox="0 0 64 64" width="64" height="64">
  <defs>
    <linearGradient id="g" x1="0" y1="0" x2="1" y2="1">
      <stop offset="0%" stop-color="#6ee7b7"/>
      <stop offset="100%" stop-color="#10b981"/>
    </linearGradient>
  </defs>
  <rect width="64" height="64" rx="14" fill="#0d1117"/>
  <path d="M32 8 L52 19 L52 43 L32 56 L12 43 L12 19 Z" fill="none" stroke="url(#g)" stroke-width="2.4" stroke-linejoin="round"/>
  <circle cx="32" cy="8" r="1.4" fill="#10b981"/>
  <circle cx="52" cy="19" r="1.4" fill="#10b981"/>
  <circle cx="52" cy="43" r="1.4" fill="#10b981"/>
  <circle cx="32" cy="56" r="1.4" fill="#10b981"/>
  <circle cx="12" cy="43" r="1.4" fill="#10b981"/>
  <circle cx="12" cy="19" r="1.4" fill="#10b981"/>
  <rect x="22" y="31" width="20" height="15" rx="2.2" fill="url(#g)"/>
  <path d="M26 31 V25.5 a6 6 0 0 1 12 0 V31" fill="none" stroke="url(#g)" stroke-width="2.6" stroke-linecap="round"/>
  <circle cx="32" cy="37.5" r="1.8" fill="#0d1117"/>
  <rect x="31.1" y="37.5" width="1.8" height="4.4" fill="#0d1117"/>
</svg>
  <defs>
    <linearGradient id="g" x1="0" y1="0" x2="1" y2="1">
      <stop offset="0%" stop-color="#22e58a"/>
      <stop offset="100%" stop-color="#0a8a4a"/>
    </linearGradient>
  </defs>
  <rect width="64" height="64" rx="14" fill="#0e1726"/>
  <!-- Hex shield outline -->
  <path d="M32 8 L52 18 L52 40 L32 56 L12 40 L12 18 Z"
        fill="none" stroke="url(#g)" stroke-width="2.4" stroke-linejoin="round"/>
  <!-- Inner padlock body -->
  <rect x="22" y="30" width="20" height="14" rx="2.2" fill="url(#g)"/>
  <!-- Padlock shackle -->
  <path d="M26 30 V25 a6 6 0 0 1 12 0 V30"
        fill="none" stroke="url(#g)" stroke-width="2.6" stroke-linecap="round"/>
  <!-- Keyhole -->
  <circle cx="32" cy="36" r="1.8" fill="#0e1726"/>
  <rect x="31.1" y="36" width="1.8" height="4.2" fill="#0e1726"/>
</svg>
